# AST/ASF file generated using VICON BodyLanguage
# -----------------------------------------------
:version 1.10
:name VICON
:units
  mass 1.0
  length 0.45
  angle deg
:documentation
   .ast/.asf automatically generated from VICON data using
   VICON BodyBuilder and BodyLanguage model FoxedUp or BRILLIANT.MOD
:root
   order TX TY TZ RX RY RZ
   axis XYZ
   position 0 0 0  
   orientation 0 0 0 
:bonedata
  begin
     id 1 
     name lhipjoint
     direction 0.547975 -0.797114 0.253638 
     length 2.36201 
     axis 0 0 0  XYZ
  end
  begin
     id 2 
     name lfemur
     direction 0.34202 -0.939693 0  
     length 7.69075  
     axis 0 0 20  XYZ
    dof rx ry rz
    limits (-160.0 20.0)
           (-70.0 70.0)
           (-60.0 70.0)
  end
  begin
     id 3 
     name ltibia
     direction 0.34202 -0.939693 0   
     length 7.91399   
     axis 0 0 20   XYZ
    dof rx
    limits (-10.0 170.0)
  end
  begin
     id 4 
     name lfoot
     direction 0.0705293 -0.193778 0.978507   
     length 2.13618   
     axis -90 7.62852e-016 20   XYZ
    dof rx rz
    limits (-45.0 90.0)
           (-70.0 20.0)
  end
  begin
     id 5 
     name ltoes
     direction 1.53592e-011 -4.21925e-011 1   
     length 1.07518   
     axis -90 7.62852e-016 20   XYZ
    dof rx
    limits (-90.0 20.0)
  end
  begin
     id 6 
     name rhipjoint
     direction -0.57 -0.782963 0.249136   
     length 2.4047  
     axis 0 0 0  XYZ 
  end
  begin
     id 7 
     name rfemur
     direction -0.34202 -0.939693 0   
     length 7.51486   
     axis 0 0 -20   XYZ
    dof rx ry rz
    limits (-160.0 20.0)
           (-70.0 70.0)
           (-70.0 60.0)
  end
  begin
     id 8 
     name rtibia
     direction -0.34202 -0.939693 0   
     length 8.08317   
     axis 0 0 -20   XYZ
    dof rx
    limits (-10.0 170.0)
 end
 begin
     id 9 
     name rfoot
     direction -0.104954 -0.281256 0.953876   
     length 2.30343  
     axis -90 -7.62852e-016 -20   XYZ
    dof rx rz
    limits (-45.0 90.0)
           (-20.0 70.0)
  end
  begin
     id 10 
     name rtoes
     direction -1.53556e-011 -4.21922e-011 1   
     length 1.14803   
     axis -90 -7.62852e-016 -20   XYZ
    dof rx
    limits (-90.0 20.0)
  end
  begin
     id 11 
     name lowerback
     direction -0.0152855 0.99353 -0.11254   
     length 2.05311   
     axis 0 0 0   XYZ
    dof rx ry rz
    limits (-20.0 45.0)
           (-30.0 30.0)
           (-30.0 30.0)
  end
  begin
     id 12 
     name upperback
     direction -0.00157509 0.999443 -0.033332   
     length 2.06353   
     axis 0 0 0   XYZ
    dof rx ry rz
    limits (-20.0 45.0)
           (-30.0 30.0)
           (-30.0 30.0)
  end
  begin
     id 13 
     name thorax
     direction 0.00577788 0.999804 0.0189484   
     length 2.08472   
     axis 0 0 0   XYZ
    dof rx ry rz
    limits (-20.0 45.0)
           (-30.0 30.0)
           (-30.0 30.0)
  end
  begin
     id 14 
     name lowerneck
     direction -1.09301e-005 0.994719 0.10264   
     length 1.76249   
     axis 0 0 0   XYZ
    dof rx ry rz
    limits (-20.0 45.0)
           (-30.0 30.0)
           (-30.0 30.0)
  end
  begin
     id 15 
     name upperneck
     direction 0.0495018 0.988526 -0.142706   
     length 1.77897   
     axis 0 0 0   XYZ
    dof rx ry rz
    limits (-20.0 45.0)
           (-30.0 30.0)
           (-30.0 30.0)
  end
  begin
     id 16
     name head
     direction 0.0142736 0.998114 -0.0597101  
     length 1.78934  
     axis 0 0 0   XYZ
    dof rx ry rz
    limits (-20.0 45.0)
           (-30.0 30.0)
           (-30.0 30.0)
  end
  begin
     id 17 
     name lclavicle
     direction 0.918111 0.396107 -0.0130883  
     length 3.37276  
     axis 0 0 0   XYZ
    dof ry rz
    limits (-20.0 10.0)
           (0.0 20.0)
  end
  begin
     id 18 
     name lhumerus
     direction 1 -4.48975e-011 -3.26108e-027   
     length 5.34298   
     axis 180 -30 -90   XYZ
    dof rx ry rz
    limits (-60.0 90.0)
           (-90.0 90.0)
           (-90.0 90.0)
  end
  begin
     id 19
     name lradius
     direction 1 -4.48964e-011 -8.84413e-028   
     length 3.67262   
     axis 180 -30 -90   XYZ
    dof rx
    limits (-10.0 170.0)
  end
  begin
     id 20
     name lwrist
     direction 1 -4.48991e-011 -1.24264e-027   
     length 1.83631   
     axis -2.17013e-015 90 90   XYZ
    dof ry
    limits (-180.0 0.0)
 end
  begin
     id 21 
     name lhand
     direction 1 -4.48855e-011 -2.48528e-027   
     length 0.599298   
     axis 1.58582e-015 90 90   XYZ
    dof rx rz
    limits (-90.0 90.0)
           (-45.0 45.0)
  end
  begin
     id 22 
     name lfingers
     direction 1 -4.48811e-011 -4.97056e-027   
     length 0.48317   
     axis 3.17164e-015 90 90   XYZ
    dof rx
    limits (0.0 90.0)
  end
  begin
     id 23
     name lthumb
     direction 0.707107 -6.34882e-011 0.707107   
     length 0.693738   
     axis -90 45 2.85299e-015   XYZ
    dof rx rz
    limits (-45.0 45.0)
           (-45.0 45.0)
  end
  begin
     id 24 
     name rclavicle
     direction -0.920511 0.384752 -0.0680135   
     length 3.43787  
     axis 0 0 0   XYZ 
    dof ry rz
    limits (-10.0 20.0)
           (-20.0 0.0)
  end
  begin
     id 25 
     name rhumerus
     direction -0.999976 -0.00330524 0.00603274  
     length 5.5498   
     axis 180 30 90   XYZ
    dof rx ry rz
    limits (-90.0 60.0)
           (-90.0 90.0)
           (-90.0 90.0)
  end
  begin
     id 26 
     name rradius
     direction -1 -4.48967e-011 8.62438e-027   
     length 3.69401   
     axis 180 30 90   XYZ
    dof rx
    limits (-10.0 170.0)
  end
  begin
     id 27 
     name rwrist
     direction -1 -4.4897e-011 9.54866e-027   
     length 1.84701   
     axis -7.69462e-015 -90 -90   XYZ
    dof ry
    limits (-180.0 0.0)
  end
  begin
     id 28
     name rhand
     direction -1 -4.48982e-011 1.90973e-026   
     length 0.638113   
     axis -1.21857e-014 -90 -90   XYZ
    dof rx rz
    limits (-90.0 90.0)
           (-45.0 45.0)
  end
  begin
     id 29
     name rfingers
     direction -1 -4.48936e-011 3.81946e-026   
     length 0.514463   
     axis -2.43714e-014 -90 -90   XYZ
    dof rx
    limits (0.0 90.0)
  end
  begin
     id 30
     name rthumb
     direction -0.707107 -6.34942e-011 0.707107   
     length 0.738669   
     axis -90 -45 -2.85299e-015   XYZ
    dof rx rz
    limits (-45.0 45.0)
           (-45.0 45.0)
  end
:hierarchy
  begin
    root lhipjoint rhipjoint lowerback
    lhipjoint lfemur
    lfemur ltibia
    ltibia lfoot
    lfoot ltoes
    rhipjoint rfemur
    rfemur rtibia
    rtibia rfoot
    rfoot rtoes
    lowerback upperback
    upperback thorax
    thorax lowerneck lclavicle rclavicle
    lowerneck upperneck
    upperneck head
    lclavicle lhumerus
    lhumerus lradius
    lradius lwrist
    lwrist lhand lthumb
    lhand lfingers
    rclavicle rhumerus
    rhumerus rradius
    rradius rwrist
    rwrist rhand rthumb
    rhand rfingers
  end

#!OML:ASF F:\twosubjects\two\Thursday\Session 1\Rory.ASF
:FULLY-SPECIFIED
:DEGREES
50
root 20.4008 18.0766 -4.23882 4.46898 -9.65637 6.71057
lowerback -3.45154 14.6915 -6.43723
upperback 2.02934 20.3231 -8.26877
thorax 4.92527 10.0729 -3.61827
lowerneck -5.46516 8.40313 7.84341
upperneck 28.8115 12.7269 -5.42479
head 11.0572 6.19265 -1.80308
rclavicle 4.49253e-014 -1.59028e-015
rhumerus -21.0434 59.3217 -112.981
rradius 84.42
rwrist -26.1437
rhand -37.4145 9.34044
rfingers 7.12502
rthumb -10.4745 -20.3786
lclavicle 4.49253e-014 -1.59028e-015
lhumerus -48.3821 -2.59609 81.3479
lradius 114.365
lwrist 12.2501
lhand -8.1609 36.1525
lfingers 7.12502
lthumb 17.754 65.3621
rfemur -7.27728 -6.36223 3.37282
rtibia 51.8527
rfoot -8.95424 -10.9231
rtoes -11.0488
lfemur -29.1793 2.58559 -30.4117
ltibia 34.2658
lfoot -10.1482 -1.87156
ltoes 9.45158
51
root 20.4124 18.0636 -4.124 4.39599 -9.76951 7.74393
lowerback -3.40309 14.602 -7.5489
upperback 2.02543 20.2405 -8.4962
thorax 4.61331 10.0048 -3.40237
lowerneck -5.99987 8.06742 7.58024
upperneck 29.2183 12.2919 -5.43859
head 11.2641 5.94846 -1.79559
rclavicle 1.03368e-014 -3.18055e-014
rhumerus -21.9195 58.6112 -113.114
rradius 84.5621
rwrist -24.9128
rhand -36.236 10.3112
rfingers 7.12502
rthumb -9.33751 -19.462
lclavicle 1.03368e-014 -3.18055e-014
lhumerus -48.4342 -2.84561 82.0414
lradius 113.955
lwrist 12.9746
lhand -7.25875 36.279
lfingers 7.12502
lthumb 18.622 65.4076
rfemur -8.89874 -6.28446 1.81394
rtibia 52.4605
rfoot -9.55775 -10.7199
rtoes -9.28591
lfemur -28.481 1.78215 -31.6111
ltibia 33.7293
lfoot -10.4163 -1.02152
ltoes 9.4269
52
root 20.4161 18.0726 -4.00049 4.2969 -9.39824 7.94075
lowerback -3.09236 14.5297 -7.74775
upperback 1.9768 20.1014 -8.53999
thorax 4.33871 9.9423 -3.46518
lowerneck -6.52539 7.56479 6.99129
upperneck 29.8107 11.51 -4.83048
head 11.4518 5.58277 -1.55763
rclavicle 1.83677e-013 -6.52014e-014
rhumerus -22.9516 57.5479 -113.351
rradius 84.7073
rwrist -23.8743
rhand -35.8957 11.2267
rfingers 7.12502
rthumb -9.00916 -18.5609
lclavicle 1.83677e-013 -6.52014e-014
lhumerus -48.3449 -3.48845 82.9204
lradius 113.278
lwrist 14.1411
lhand -7.85159 36.1115
lfingers 7.12502
lthumb 18.0516 65.2938
rfemur -9.98716 -6.10628 1.51874
rtibia 52.6293
rfoot -9.73717 -11.0849
rtoes -9.57623
lfemur -27.6058 0.975713 -31.7737
ltibia 33.385
lfoot -10.8215 -0.72364
ltoes 11.6638
53
root 20.4301 18.1125 -3.87134 4.62665 -8.58298 7.08704
lowerback -2.88078 14.4873 -6.76301
upperback 1.75938 19.9628 -8.43607
thorax 4.26395 9.91489 -3.86838
lowerneck -7.07112 6.90839 6.5011
upperneck 30.537 10.5065 -4.22925
head 11.7024 5.1314 -1.36414
rclavicle 3.10104e-014 -3.02153e-014
rhumerus -23.9302 56.1559 -113.458
rradius 84.8431
rwrist -22.5918
rhand -35.6461 11.491
rfingers 7.12502
rthumb -8.76828 -18.3069
lclavicle 3.10104e-014 -3.02153e-014
lhumerus -48.156 -4.60536 83.8856
lradius 112.458
lwrist 15.1871
lhand -8.28256 35.9695
lfingers 7.12502
lthumb 17.6369 65.1896
rfemur -11.0466 -5.87567 2.64185
rtibia 52.3922
rfoot -10.4137 -11.6626
rtoes -8.23391
lfemur -27.1145 -0.0514798 -30.7725
ltibia 33.1292
lfoot -11.1627 -0.570482
ltoes 13.6606
54
root 20.4263 18.1588 -3.73148 4.66965 -7.42566 6.23915
lowerback -2.62926 14.2242 -6.12227
upperback 1.73386 19.5419 -8.08552
thorax 4.15359 9.72197 -3.89774
lowerneck -7.55949 6.39792 6.11166
upperneck 31.0563 9.78711 -3.99578
head 11.9213 4.78071 -1.28795
rclavicle -2.44505e-014 1.27222e-014
rhumerus -24.7263 55.054 -113.332
rradius 85.1265
rwrist -22.069
rhand -34.3206 11.5957
rfingers 7.12502
rthumb -7.489 -18.2517
lclavicle -2.44505e-014 1.27222e-014
lhumerus -48.0819 -5.26172 84.6984
lradius 111.993
lwrist 15.7166
lhand -7.04101 36.2335
lfingers 7.12502
lthumb 18.8314 65.342
rfemur -11.4217 -5.57987 3.99583
rtibia 51.8293
rfoot -11.5798 -12.1807
rtoes -6.50517
lfemur -26.3913 -0.723026 -29.7444
ltibia 32.9257
lfoot -11.364 -0.798117
ltoes 14.4012
